<?xml version="1.0" encoding="UTF-8"?>
<svg id="Layer_1" xmlns="http://www.w3.org/2000/svg" viewBox="0 0 950.71 656.24">
  <defs>
    <style>
      .cls-1 {
        fill: #8ea070;
      }

      .cls-2 {
        fill: #7f7f7f;
      }
    </style>
  </defs>
  <g>
    <path class="cls-1" d="M107.35,506.66h104.09v4.77h-54.88v144.35h-25.35v-144.35h-23.86v-4.77ZM203.39,457.75c0,2.98-.9,5.67-2.39,8.65,4.18-11.04-3.58-24.46-25.94-24.46-23.56,0-36.09,18.2-36.09,35.19,0,11.33,5.66,22.37,17.3,27.44-24.45-6.56-35.49-20.58-35.49-34,0-17.3,18.49-34.3,52.19-34.3,18.49,0,30.42,10.14,30.42,21.47Z"/>
    <path class="cls-1" d="M315.77,589.13c-11.04-15.81-28.04-24.16-44.74-24.16-31.61,0-45.63,21.18-45.63,41.75,0,19.39,12.52,37.88,34.3,37.88,13.12,0,30.42-7.16,52.49-25.35-19.68,23.27-45.33,35.79-66.81,35.79-28.33,0-45.04-22.07-45.04-44.74,0-24.16,19.09-49.21,62.63-49.21,19.98,0,40.26,7.46,52.79,24.16v-7.16c0-37.28.3-73.07-41.76-73.07-35.79,0-52.49,24.46-56.07,37.58,6.27-25.35,30.12-43.25,56.97-43.25,57.26,0,66.21,36.68,66.21,78.74v46.23c0,16.4,5.07,22.37,11.93,22.37,5.67,0,12.52-4.17,17.9-9.54-6.27,10.74-17.9,16.4-28.93,16.4-13.72,0-26.25-8.65-26.25-28.34v-36.09ZM217.64,544.4c0-.6.3-1.19.3-1.79,0,.6-.3,1.19-.3,1.79Z"/>
    <path class="cls-1" d="M396.48,428.08h25.65v223.69h-25.65v-223.69Z"/>
    <path class="cls-1" d="M571.07,589.13c-11.04-15.81-28.04-24.16-44.74-24.16-31.61,0-45.63,21.18-45.63,41.75,0,19.39,12.52,37.88,34.3,37.88,13.12,0,30.42-7.16,52.49-25.35-19.68,23.27-45.33,35.79-66.81,35.79-28.34,0-45.04-22.07-45.04-44.74,0-24.16,19.09-49.21,62.63-49.21,19.98,0,40.26,7.46,52.79,24.16v-7.16c0-37.28.3-73.07-41.76-73.07-35.79,0-52.49,24.46-56.07,37.58,6.27-25.35,30.12-43.25,56.97-43.25,57.26,0,66.21,36.68,66.21,78.74v46.23c0,16.4,5.07,22.37,11.93,22.37,5.67,0,12.52-4.17,17.9-9.54-6.27,10.74-17.9,16.4-28.93,16.4-13.72,0-26.25-8.65-26.25-28.34v-36.09ZM472.95,544.4c0-.6.3-1.19.3-1.79,0,.6-.3,1.19-.3,1.79Z"/>
    <path class="cls-1" d="M631.44,502.64h104.09v4.77h-54.88v144.35h-25.35v-144.35h-23.86v-4.77ZM727.47,453.73c0,2.98-.9,5.67-2.39,8.65,4.18-11.04-3.58-24.46-25.94-24.46-23.56,0-36.09,18.2-36.09,35.19,0,11.33,5.66,22.37,17.3,27.44-24.45-6.56-35.49-20.58-35.49-34,0-17.3,18.49-34.3,52.19-34.3,18.49,0,30.42,10.14,30.42,21.47Z"/>
    <path class="cls-1" d="M871.48,538.14c0,22.67-23.86,49.51-80.82,62.03,40.86-16.4,55.77-40.26,55.77-59.95s-14.61-34.6-33.11-34.6c-27.73,0-39.97,23.56-39.97,51.3,0,40.26,25.65,89.77,65.92,89.77,36.68,0,58.16-38.48,59.65-49.81-2.98,28.63-33.4,59.35-72.47,59.35-53.09,0-78.44-38.18-78.44-78.44,0-53.09,36.39-77.55,71.88-77.55,31.91,0,51.6,17.3,51.6,37.88Z"/>
    <path class="cls-1" d="M925.06,428.08h25.65v223.69h-25.65v-223.69Z"/>
  </g>
  <g>
    <path class="cls-1" d="M0,437.95c21.79-2.48,22.9-21.8,22.9-52.97v-134.63h23.45v126.08c0,46.63-23.45,65.11-46.35,61.52Z"/>
    <path class="cls-1" d="M145.98,393.54c-59.87,0-62.08-44.14-62.08-82.21v-58.49h23.45v63.45c0,29.24,2.21,70.08,41.11,70.08,24.56,0,32.01-11.31,35.04-17.93-3.59,16.28-22.07,25.11-37.52,25.11ZM185.99,252.84h23.72v112.56c0,15.17,4.97,20.69,11.04,20.69,5.24,0,11.59-3.86,16.55-8.83-5.79,9.93-16.83,15.17-27.04,15.17-12.69,0-24.28-8-24.28-26.21v-113.39Z"/>
    <path class="cls-1" d="M301.04,389.4c24.55,0,48.55-10.48,48.55-28.69,0-36.14-97.38-19.59-97.38-71.73,0-26.76,25.11-41.11,51.03-41.11,24.28,0,48.83,12.14,55.18,38.63-6.35-22.35-29.52-32.83-50.76-32.83s-39.73,9.93-39.73,28.14c0,36.42,100.43,17.93,100.43,70.63,0,29.52-29.52,43.32-59.32,43.32-32.01,0-64.83-16-61.8-46.07-1.38,27.31,26.76,39.73,53.8,39.73Z"/>
    <path class="cls-1" d="M396.42,257.53h-21.52v-4.42h91.87v4.42h-46.9v101.25c0,19.03,8.28,26.49,18.76,26.49,14.62,0,33.1-14.07,40.83-31.45-11.04,28.42-31.18,38.62-48.56,38.62-19.03,0-34.49-12.69-34.49-32.83v-102.08ZM427.87,230.22c0,10.21-11.31,20.42-40.83,20.97,19.86-1.1,30.07-12.69,30.07-23.45,0-7.73-5.24-14.9-16-17.38,15.73,0,26.76,9.93,26.76,19.86Z"/>
    <path class="cls-1" d="M85.23,119.54c-.36-.1-.73.1-.83.46h0s0,0,0,0c-.45,1.87-1.35,3.6-2.58,5.1-1.22,1.51-2.76,2.77-4.4,3.85-3.31,2.17-7.03,3.71-10.78,5.12-3.75,1.41-7.55,2.75-11.32,4.2-3.76,1.47-7.49,3.1-11.01,5.18-1.75,1.05-3.47,2.18-5.08,3.48-.81.64-1.57,1.32-2.34,2.05-.36.36-.72.69-1.08,1.07-.36.38-.73.76-1.07,1.15-2.76,3.09-5,6.72-6.35,10.74-.66,2.01-1.11,4.1-1.28,6.23-.14,2.13-.05,4.29.37,6.4.39,2.12,1.11,4.17,2.07,6.1.48.97,1.03,1.9,1.64,2.79.59.89,1.53,1.75,2.5,1.86.75.09,1.3-.69,1.58-1.11,18.04-27,40.85-22.75,49.95-49.88-.26.78-.27,1.94-.58,3.33-.35,1.51-.85,3.32-1.63,5.32-.78,2-1.83,4.19-3.17,6.47-1.34,2.27-2.96,4.63-4.84,7-1.88,2.37-4,4.76-6.3,7.13-4.59,4.76-9.87,9.46-15.19,14.16-5.32,4.7-10.68,9.42-15.38,14.31-2.34,2.44-4.53,4.92-6.44,7.44-1.92,2.52-3.56,5.07-4.84,7.61-1.3,2.52-2.22,5.02-2.78,7.32-.57,2.3-.82,4.38-.88,6.1-.01.87-.03,1.61.01,2.32.02.35.04.68.06.97,0,.15.02.29.03.43.01.12.03.22.04.33.09.83.15,1.27.15,1.27,0,.05.01.11.02.15.27,1.62,1.8,2.71,3.42,2.44,1.62-.27,2.71-1.8,2.44-3.42,0,0-.07-.44-.21-1.26-.02-.1-.04-.21-.05-.33-.01-.1-.02-.2-.03-.3-.02-.21-.05-.44-.08-.69-.06-.49-.07-1.14-.11-1.82-.02-1.38.09-3.07.46-5,.37-1.92,1.03-4.08,2.05-6.35,1-2.28,2.36-4.67,4.02-7.1,1.65-2.43,3.6-4.9,5.74-7.37.21-.25.44-.49.65-.74l.17.09c.56.29,1.17.56,1.76.84,1.18.53,2.37.99,3.59,1.39,2.44.8,4.98,1.31,7.55,1.51,2.57.2,5.16.08,7.69-.37,2.53-.44,4.99-1.18,7.34-2.18,4.7-1.99,8.9-4.95,12.5-8.46,3.6-3.52,6.62-7.58,9.03-11.95,2.41-4.37,4.23-9.07,5.36-13.93,1.13-4.86,1.56-9.89,1.17-14.86-.39-4.97-1.64-9.89-3.76-14.41-2.12-4.52-5.11-8.6-8.68-12.04-.08-.07-.17-.13-.28-.16Z"/>
  </g>
  <g>
    <path class="cls-2" d="M129.9,60.65l6.97-3.52,27.88,23-.84-24.04c-.09-2.4-.65-4.28-1.41-5.78-1.51-3-3.66-4.27-3.66-4.27l6-3.03,1.67,46.19-1.28.64-35.34-29.21Z"/>
    <path class="cls-2" d="M239.91,29.4c1.6,6.18-3.01,15.18-17.66,22.61,9.98-7.35,12.37-14.91,10.98-20.27-1.37-5.28-6.42-8.4-11.46-7.1-7.56,1.96-9.23,9.24-7.28,16.8,2.84,10.98,13.32,22.66,24.29,19.82,10-2.59,13.14-14.58,12.75-17.78,1.2,8.01-4.92,18.53-15.57,21.29-14.47,3.74-24.07-4.88-26.91-15.85-3.74-14.47,4.45-23.7,14.12-26.2,8.7-2.25,15.28,1.08,16.73,6.69Z"/>
    <path class="cls-2" d="M303.49,11c12.26-.38,18.38,7.25,18.64,15.56.26,8.31-5.46,16.31-17.64,16.68-12.26.38-18.46-7.33-18.72-15.56-.25-8.31,5.55-16.31,17.72-16.68ZM293.03,42.25c-1.76.22-3.52.19-3.45,2.46.27,8.9,37.99-5.12,38.59,14.27.34,10.92-11.11,15.72-22.2,16.06-11.5.36-19.17-5.88-19.37-12.17-.08-2.44.95-4.82,3.23-6.91-1.87,2.07-2.72,4.37-2.65,6.72.18,5.71,5.97,11.08,16.39,10.76,10.41-.32,18.18-4.68,17.94-12.4-.23-7.56-8.63-7.13-17.1-6.87-8.39.26-16.88.35-17.14-7.96-.08-2.69,3.05-4.63,5.76-3.96ZM292.73,24.53c.25,8.06,5.41,17.31,13.64,17.06,6.38-.2,9.07-5.74,8.88-11.95-.25-8.14-5.41-17.31-13.72-17.06-6.3.2-8.98,5.74-8.79,11.95ZM321.8,7.75c-.06-2.01-1.61-3.06-3.37-3.01-.92.03-1.84.31-2.66,1.01-1.03-3.58,1.25-5.67,3.77-5.75,2.35-.07,4.84,1.53,4.95,5.23.08,2.69-1.58,6.01-6.68,9.45,3.02-2.78,4.04-5.25,3.99-6.93Z"/>
    <path class="cls-2" d="M395.44,44.81c-2.18-4.97-6.42-8.21-11.03-9.12-8.73-1.73-13.77,3.35-14.89,9.04-1.06,5.35,1.39,11.15,7.4,12.34,3.63.72,8.8-.31,15.89-4.13-6.71,5.35-14.48,7.4-20.41,6.23-7.82-1.55-11.23-8.56-9.99-14.82,1.32-6.67,7.96-12.55,19.99-10.17,5.52,1.09,10.71,4.26,13.26,9.56l.39-1.98c2.04-10.3,4.08-20.17-7.54-22.47-9.88-1.96-15.83,3.88-17.54,7.31,3.12-6.66,10.69-10.29,18.1-8.83,15.81,3.13,16.28,13.75,13.98,25.37l-2.53,12.77c-.9,4.53.18,6.46,2.07,6.83,1.56.31,3.69-.47,5.46-1.66-2.32,2.62-5.84,3.55-8.89,2.95-3.79-.75-6.78-3.82-5.7-9.26l1.97-9.97ZM370.79,27.09c.03-.17.15-.31.18-.48-.03.17-.15.31-.18.48Z"/>
    <path class="cls-2" d="M456.36,38.04l6.56,3.03-17.61,38.12-6.56-3.03,17.61-38.12ZM474.07,75c3.59-7.96,11.55-22.79-.65-28.42-6.63-3.06-9.95-2.1-11.58-1.37,3.73-2.25,9.05-1.37,12.86.39,17.84,8.24,10.71,22.06,5.64,33.04l-3.13,6.78c-1.94,4.19-1.35,6.32.41,7.13,1.45.67,3.7.41,5.7-.33-2.87,2-6.59,2.05-9.41.74-3.51-1.62-5.68-5.31-3.36-10.34l3.52-7.62Z"/>
    <path class="cls-2" d="M592.58,131.19c6.55,6.98,6.13,13.03,3.49,15.5-2.02,1.89-5.29,1.73-7.8-1.44.83-.09,1.74-.6,2.6-1.4,2.51-2.36,4.27-7.47-1.19-13.28s-12.95-3.73-18.77,1.73c-8.2,7.7-13.18,22.28-4.67,31.34,5.92,6.31,17.42,5.07,21.26,2.04-6.17,5.33-18.85,4.46-26.21-3.38-10.23-10.9-7.28-23.46.99-31.22,10.1-9.48,23.17-7.47,30.29.12Z"/>
    <path class="cls-2" d="M625.74,219.8c2.28-4.93,1.9-10.25-.47-14.31-4.49-7.69-11.63-8.09-16.63-5.18-4.72,2.75-7.44,8.42-4.35,13.72,1.86,3.19,6.06,6.38,13.61,9.17-8.45-1.49-15.14-5.95-18.18-11.17-4.02-6.89-1.02-14.09,4.49-17.3,5.88-3.43,14.68-2.34,20.86,8.25,2.84,4.86,3.9,10.85,1.61,16.27l1.74-1.02c9.07-5.29,17.82-10.29,11.85-20.52-5.08-8.71-13.4-9.3-17.1-8.31,7.06-2.07,14.79,1.19,18.6,7.72,8.12,13.93.47,21.31-9.76,27.27l-11.24,6.56c-3.99,2.33-4.72,4.41-3.75,6.07.8,1.38,2.79,2.45,4.85,3-3.5,0-6.52-2.02-8.09-4.71-1.95-3.34-1.62-7.61,3.17-10.4l8.78-5.12ZM622.71,189.58c.14-.08.33-.1.48-.18-.15.08-.33.1-.48.18Z"/>
    <path class="cls-2" d="M669.26,256.34l9.14,27.85-1.28.42-4.82-14.68-38.63,12.68-2.22-6.78,38.63-12.68-2.1-6.39,1.28-.42ZM690.78,277.75c-.8.26-1.59.26-2.52.12,3.32.15,6.23-3.11,4.27-9.09-2.07-6.3-8.04-8.06-12.58-6.57-3.03,1-5.49,3.48-5.82,7.04-.39-7.12,2.39-11.31,5.98-12.48,4.63-1.52,10.8,1.93,13.76,10.95,1.63,4.95-.04,9.03-3.07,10.03Z"/>
    <path class="cls-2" d="M682,361.85c-6.34.72-14.61-5.11-19.91-20.65,5.88,10.91,13.03,14.33,18.54,13.71,5.42-.61,9.22-5.19,8.63-10.36-.88-7.76-7.86-10.44-15.62-9.56-11.26,1.27-24.31,10.02-23.03,21.28,1.16,10.26,12.61,15.05,15.82,15.11-8.11.07-17.66-7.47-18.9-18.4-1.68-14.85,8.2-23.15,19.47-24.43,14.85-1.68,22.85,7.73,23.97,17.66,1.01,8.93-3.21,14.98-8.96,15.63Z"/>
  </g>
</svg>