<svg width="172" height="45" viewBox="0 0 172 45" fill="none" xmlns="http://www.w3.org/2000/svg">
<path d="M55.4078 14.6395C62.9527 13.2099 65.9206 14.2027 66.5302 16.8136C67.0599 19.0871 65.6009 22.4625 63.852 26.513C62.0433 30.7025 59.9047 34.8721 59.435 39.826C59.0853 44.1644 59.455 45.8322 58.2059 44.6111C57.4963 38.0886 60.3644 31.447 62.7128 26.0265C64.3717 22.1746 65.7608 18.968 65.3211 17.0916C64.6015 13.9843 59.2552 15.5231 57.0966 16.0889C56.1273 16.3371 55.1979 16.1783 54.6683 16.5555C53.1693 17.6277 52.3298 15.4238 53.2092 15.0763C53.619 14.9175 54.8381 14.7487 55.4078 14.6395Z" fill="black"/>
<path d="M74.1384 14.582C75.1378 14.6515 72.8793 19.7642 72.1898 22.8021C71.4902 25.8499 70.7907 29.0665 70.2111 32.0547C69.8014 32.3227 68.4723 33.2758 68.9819 31.8264C69.5715 28.8183 70.2711 25.5819 70.9706 22.5341C71.3603 20.8166 71.7501 19.1686 72.1098 17.6397C71.85 16.1208 72.2397 14.1253 74.1384 14.582Z" fill="black"/>
<path d="M6.03181 26.4855C15.1656 26.1976 23.7298 26.0784 32.404 25.9791C42.8669 25.8501 53.3098 25.9097 64.7721 26.1876C66.2311 26.0983 67.6102 27.1705 66.0612 27.3392L64.812 27.4187H64.7621C53.2698 27.1308 42.8369 27.0811 32.4339 27.2002C23.8697 27.3095 15.2556 27.6569 6.0418 28.0242C4.10311 28.1037 2.13444 28.5306 0.135796 28.61C-0.773589 25.9593 3.07381 26.5847 6.03181 26.4855Z" fill="black"/>
<path d="M82.6672 10.0037C80.1988 18.204 78.6898 24.9647 77.0709 32.5197C76.8211 33.6812 76.4414 39.0719 75.7219 38.784L74.5027 39.0521C74.3328 38.4266 75.0323 36.0738 75.432 34.1776C77.2308 25.8086 78.7698 18.5912 81.468 9.65625L82.6672 10.0037Z" fill="black"/>
<path d="M89.9283 1.97352C88.9289 4.09804 87.7298 5.23972 86.9203 7.31461C86.1009 9.4292 86.1908 9.40935 85.5412 11.3949C83.9123 16.3686 82.8431 20.6773 82.2734 23.2783C81.6239 26.2169 81.8837 26.5346 82.8031 25.929C83.6225 25.2142 84.6219 24.3604 85.7111 23.8144C87.32 23.0202 89.0289 22.9209 90.5279 24.7972C91.827 26.4353 91.4872 27.8152 93.6657 24.4696C93.7057 24.4101 93.7457 24.3505 93.7957 24.3009C93.6458 24.0527 93.6957 23.735 93.9955 23.318C94.5951 22.4742 95.0848 22.2955 95.4246 22.5337C95.5245 22.6032 95.5645 22.772 95.5445 23.0003C96.194 22.7621 96.9435 22.5337 97.6131 22.5933C98.6324 22.6826 99.3619 23.2982 99.202 25.0355C99.172 25.3433 99.192 25.6113 99.242 25.8396C99.3219 26.207 99.5118 26.475 99.7816 26.6537C100.851 27.3685 105.698 26.892 106.847 26.6438C107.596 22.3153 116.8 23.8938 109.075 27.1402C110.354 28.3017 116.041 28.2918 117.48 27.5869C117.46 27.3884 117.5 27.1799 117.6 26.9813C117.739 26.6736 118.019 26.3956 118.359 26.1474C119.698 25.1844 120.777 24.9164 121.427 25.0156C121.777 25.0653 122.057 25.2241 122.236 25.4425C122.446 25.6907 122.516 26.0084 122.436 26.346C122.336 26.8126 121.907 27.3387 121.107 27.7557C120.887 27.8748 120.628 27.984 120.358 28.0833C122.416 28.5598 126.324 28.9172 133.229 28.947C141.623 28.9867 148.339 28.9271 154.435 28.7286C157.563 28.6293 160.541 28.4903 163.499 28.3116C166.297 28.1429 171.153 26.4849 171.973 27.706C172.353 28.9966 168.645 29.2151 166.297 29.3739C162.429 29.632 158.592 29.8306 154.485 29.9596C148.349 30.1582 141.623 30.2177 133.229 30.178C125.424 30.1383 121.327 29.6916 119.378 29.0959C118.939 28.9669 118.599 28.8179 118.329 28.6591C113.143 29.8008 108.656 28.7683 107.466 27.6961C105.608 28.1826 100.621 28.679 99.1021 27.6564C98.5724 27.299 98.1927 26.7927 98.0428 26.0878C97.9628 25.7404 97.9429 25.3532 97.9828 24.9164C98.0528 24.1122 97.8429 23.8442 97.5231 23.8144C96.9635 23.7648 96.1141 24.0924 95.5045 24.3406C95.3646 24.4001 95.2247 24.4498 95.1048 24.4895C95.0048 24.698 94.8749 24.9164 94.745 25.1249C93.9256 26.3757 91.5971 29.2845 90.358 26.8026C89.1188 24.3108 87.6398 24.2413 86.3007 24.9064C85.3614 25.373 84.432 26.1772 83.6625 26.8423C82.7331 27.6465 81.9936 28.2918 81.3241 28.1429C80.4647 27.9542 80.2948 26.6239 81.0943 22.9904C81.6739 20.3496 82.7531 15.9914 84.392 10.9878C85.0116 9.09166 85.7111 7.10613 86.5006 5.08088C86.9703 3.86971 87.9396 1.67569 88.4493 0.623357C88.859 -0.210567 89.1588 -0.0417971 89.6784 0.186539C90.4379 0.563791 90.378 1.03039 89.9283 1.97352ZM108.386 26.1077C108.286 25.3929 113.153 24.1321 108.386 26.1077V26.1077ZM118.939 27.2494C119.548 27.0806 120.098 26.882 120.518 26.6636C120.817 26.5048 121.017 26.3559 121.117 26.2367C120.707 26.2268 120.018 26.475 119.069 27.1501C119.019 27.1799 118.979 27.2097 118.939 27.2494Z" fill="black"/>
<path d="M65.2703 9.58936C70.2169 9.26175 74.9937 9.20218 79.7005 9.30146C84.7771 9.41066 89.7937 9.69857 94.8802 10.0063C95.3999 10.0063 95.9995 11.4558 95.0202 11.4061C93.1314 11.5153 92.1421 11.148 91.1128 11.0189C87.3254 10.5523 83.5179 10.6119 79.6805 10.5325C73.7146 10.4034 69.9471 10.88 64.181 11.3068C63.9012 11.3664 63.8612 10.4829 63.8912 9.89712C63.9312 9.3511 64.7606 9.61915 65.2703 9.58936Z" fill="black"/>
<path d="M17.3125 18.8636V9.27344H19.7409C20.5703 9.27344 21.2199 9.48192 21.6895 9.90881C22.1592 10.3357 22.3891 10.9611 22.3891 11.805C22.3891 12.2914 22.2691 12.7084 22.0293 13.0757C21.7895 13.4431 21.4597 13.6913 21.06 13.8402C21.5596 13.9394 21.9594 14.2174 22.2691 14.6542C22.5789 15.0911 22.7288 15.6172 22.7288 16.203C22.7288 17.0667 22.499 17.7219 22.0293 18.1786C21.5596 18.6352 20.9301 18.8636 20.1406 18.8636H17.3125ZM18.112 13.5721H19.9907C20.4904 13.5622 20.8801 13.4033 21.1599 13.0956C21.4397 12.7878 21.5796 12.351 21.5796 11.7752C21.5796 11.1796 21.4197 10.7229 21.1099 10.425C20.7901 10.1173 20.3305 9.96838 19.7309 9.96838H18.102V13.5721H18.112ZM18.112 14.2373V18.1786H20.1406C20.7002 18.1786 21.1399 18.0098 21.4597 17.6623C21.7795 17.3149 21.9294 16.8284 21.9294 16.203C21.9294 15.6172 21.7895 15.1506 21.5097 14.7833C21.2299 14.416 20.8101 14.2373 20.2705 14.2373H18.112Z" fill="black"/>
<path d="M31.115 14.3486H31.155L33.4934 9.26562H34.4028L31.5347 15.3414V18.8558H30.7352V15.3016L27.8672 9.27555H28.7866L31.115 14.3486Z" fill="black"/>
</svg>
