<?xml version="1.0" encoding="UTF-8"?>
<svg xmlns="http://www.w3.org/2000/svg" width="39" height="39" viewBox="0 0 39 39" fill="none">
  <path d="M39 19.4939C39 19.7191 38.8189 19.9002 38.5937 19.9002C28.2711 19.9002 19.9038 28.2715 19.9038 38.5937C19.9038 38.8189 19.7227 39 19.5024 39C19.2822 39 19.0962 38.8189 19.0962 38.5937C19.0962 28.2691 10.7289 19.9002 0.40625 19.9002C0.181099 19.9002 0 19.7191 0 19.4939C0 19.2687 0.181099 19.0924 0.40625 19.0924C10.724 19.0924 19.0938 10.726 19.0962 0.406326C19.1011 0.176238 19.2797 0 19.5024 0C19.7252 0 19.9087 0.181133 19.9087 0.406326C19.9087 0.418565 19.9087 0.428356 19.9038 0.440595C19.9258 10.7456 28.2882 19.0924 38.5937 19.0924C38.8189 19.0924 39 19.2736 39 19.4939Z" fill="#B78C57"></path>
</svg>
