<?xml version="1.0" encoding="UTF-8"?>
<svg xmlns="http://www.w3.org/2000/svg" width="34" height="34" viewBox="0 0 34 34" fill="none">
  <path d="M24.3354 1H9.57874C4.81713 1 0.957031 4.8601 0.957031 9.62171V24.3783C0.957031 29.1399 4.81713 33 9.57874 33H24.3353C29.0969 33 32.957 29.1399 32.957 24.3783V9.62171C32.9571 4.8601 29.097 1 24.3354 1Z" stroke="black" stroke-miterlimit="10"></path>
  <path d="M16.9585 24.7218C21.2245 24.7218 24.6827 21.2635 24.6827 16.9976C24.6827 12.7317 21.2245 9.27344 16.9585 9.27344C12.6926 9.27344 9.23438 12.7317 9.23438 16.9976C9.23438 21.2635 12.6926 24.7218 16.9585 24.7218Z" stroke="black" stroke-miterlimit="10"></path>
  <path d="M27.4901 7.62394C27.4901 8.26193 26.9729 8.77913 26.3349 8.77913C25.6969 8.77913 25.1797 8.26193 25.1797 7.62394C25.1797 6.98595 25.6969 6.46875 26.3349 6.46875C26.9729 6.46875 27.4901 6.98595 27.4901 7.62394Z" stroke="black"></path>
</svg>
